<?xml version="1.0" encoding="utf-8"?>
<!-- Generator: Adobe Illustrator 24.1.2, SVG Export Plug-In . SVG Version: 6.00 Build 0)  -->
<svg version="1.1" id="Layer_1" xmlns="http://www.w3.org/2000/svg" xmlns:xlink="http://www.w3.org/1999/xlink" x="0px" y="0px"
	 viewBox="0 0 16 16" style="enable-background:new 0 0 16 16;" xml:space="preserve">
<style type="text/css">
	.st0{fill:#333333;}
	.st1{fill:#F94956;}
</style>
<g>
	<polyline class="st0" points="2.33,5.71 2.81,4.33 5.33,2.91 6.71,3.33 5.66,4.58 3.84,5.46 2.38,5.71 	"/>
	<circle class="st0" cx="5.14" cy="5.64" r="1.39"/>
	<polygon class="st0" points="2.75,5.57 2.84,7.32 2.42,7.32 2.52,5.57 	"/>
	<path class="st0" d="M1.48,11.73c0,0-0.14-2.96,4.44-4.54c0,0,0.79,0.89,0.5,3.86c0,0,1.11-1.43,0.19-4.3c0,0,1.37-0.87,0.74-3.84
		c0,0,4.23,7.11-4.51,12.75c0,0,3.31-4.18,1.29-5.52C3.15,9.52,1.53,11.44,1.48,11.73z"/>
	<path class="st1" d="M7.99,2.7L7.2,2.2L6.4,2.7l0.23-0.91l-0.71-0.6l0.93-0.06L7.2,0.25l0.35,0.88l0.93,0.06l-0.71,0.6L7.99,2.7z"
		/>
	<path class="st1" d="M14.52,7.75L9.63,7.43L8.92,5.65c0.07,0.47,0.11,0.98,0.1,1.53C9,9.24,8.24,12.11,5.07,14.81l2.72-1.72
		l4.2,2.66l-1.23-4.82L14.52,7.75z"/>
</g>
</svg>
