<svg xmlns="http://www.w3.org/2000/svg" width="28" height="28" viewBox="0 0 28 28"><circle cx="14" cy="14" r="14" fill="#fff" opacity="0.4"/><g transform="translate(8.439 5.274)"><path d="M7.7,16.805a2.936,2.936,0,0,1-2.23-1.028l-4.732-5.4a3.01,3.01,0,0,1,0-3.956l4.732-5.4A2.936,2.936,0,0,1,7.7,0,3.1,3.1,0,0,1,8.968.273a3.027,3.027,0,0,0-.993.755l-4.732,5.4a3.008,3.008,0,0,0,0,3.956l4.732,5.4a3.026,3.026,0,0,0,.993.755A3.1,3.1,0,0,1,7.7,16.805Z" transform="translate(13.263 16.805) rotate(180)" fill="#033554" opacity="0.4"/><path d="M7.7,16.805a2.936,2.936,0,0,1-2.23-1.028l-4.732-5.4a3.01,3.01,0,0,1,0-3.956l4.732-5.4A2.936,2.936,0,0,1,7.7,0,3.1,3.1,0,0,1,8.968.273a3.027,3.027,0,0,0-.993.755l-4.732,5.4a3.008,3.008,0,0,0,0,3.956l4.732,5.4a3.026,3.026,0,0,0,.993.755A3.1,3.1,0,0,1,7.7,16.805Z" transform="translate(8.968 16.805) rotate(180)" fill="#033554" opacity="0.25"/></g></svg>