<svg xmlns="http://www.w3.org/2000/svg" width="19.564" height="18.546" viewBox="0 0 19.564 18.546"><path d="M9.782,18.546a1.107,1.107,0,0,1-.756-.3c-.79-.736-1.552-1.428-2.225-2.039l0,0A42.6,42.6,0,0,1,1.94,11.343,8.042,8.042,0,0,1,0,6.265a6.768,6.768,0,0,1,1.552-4.45A5.117,5.117,0,0,1,5.465,0,4.732,4.732,0,0,1,8.539,1.131,6.536,6.536,0,0,1,9.782,2.513a6.537,6.537,0,0,1,1.243-1.383A4.732,4.732,0,0,1,14.1,0a5.117,5.117,0,0,1,3.913,1.815,6.768,6.768,0,0,1,1.552,4.45,8.041,8.041,0,0,1-1.94,5.079A42.591,42.591,0,0,1,12.767,16.2c-.673.611-1.437,1.3-2.229,2.043a1.108,1.108,0,0,1-.756.3ZM5.465,1.221A4.014,4.014,0,0,0,2.394,2.643,5.507,5.507,0,0,0,1.146,6.265a6.761,6.761,0,0,0,1.677,4.3,41.909,41.909,0,0,0,4.718,4.707l0,0c.675.613,1.44,1.307,2.236,2.049.8-.743,1.567-1.439,2.243-2.053a41.919,41.919,0,0,0,4.718-4.707,6.762,6.762,0,0,0,1.677-4.3,5.507,5.507,0,0,0-1.249-3.622A4.014,4.014,0,0,0,14.1,1.221a3.655,3.655,0,0,0-2.373.875A5.843,5.843,0,0,0,10.4,3.727a.7.7,0,0,1-1.243,0A5.837,5.837,0,0,0,7.838,2.1a3.655,3.655,0,0,0-2.373-.875Zm0,0"/></svg>