<svg xmlns="http://www.w3.org/2000/svg" width="22.267" height="22.618" viewBox="0 0 22.267 22.618"><path d="M21.4,15.55a.877.877,0,0,0,.87-.884V5.3a3.511,3.511,0,0,0-3.479-3.534H17.657V.884a.87.87,0,1,0-1.74,0v.884H11.96V.884a.87.87,0,1,0-1.74,0v.884H6.306V.884a.87.87,0,1,0-1.74,0v.884H3.479A3.511,3.511,0,0,0,0,5.3V19.084a3.511,3.511,0,0,0,3.479,3.534H18.788a3.511,3.511,0,0,0,3.479-3.534.87.87,0,1,0-1.74,0,1.755,1.755,0,0,1-1.74,1.767H3.479a1.755,1.755,0,0,1-1.74-1.767V5.3a1.755,1.755,0,0,1,1.74-1.767H4.567v.884a.87.87,0,1,0,1.74,0V3.534H10.22v.884a.87.87,0,1,0,1.74,0V3.534h3.958v.884a.87.87,0,1,0,1.74,0V3.534h1.131A1.755,1.755,0,0,1,20.528,5.3v9.365A.877.877,0,0,0,21.4,15.55Z" fill="#f9f9f9"/><g transform="translate(4.355 8.258)"><ellipse cx="1.13" cy="0.753" rx="1.13" ry="0.753" fill="#f9f9f9"/></g><g transform="translate(11.887 8.258)"><ellipse cx="1.13" cy="0.753" rx="1.13" ry="0.753" fill="#f9f9f9"/></g><g transform="translate(15.652 8.258)"><ellipse cx="1.13" cy="0.753" rx="1.13" ry="0.753" fill="#f9f9f9"/></g><g transform="translate(4.355 12.095)"><circle cx="1.13" cy="1.13" r="1.13" fill="#f9f9f9"/></g><g transform="translate(4.355 15.927)"><circle cx="1.13" cy="1.13" r="1.13" fill="#f9f9f9"/></g><g transform="translate(8.121 8.258)"><ellipse cx="1.13" cy="0.753" rx="1.13" ry="0.753" fill="#f9f9f9"/></g><g transform="translate(8.121 12.095)"><circle cx="1.13" cy="1.13" r="1.13" fill="#f9f9f9"/></g><g transform="translate(8.121 15.927)"><circle cx="1.13" cy="1.13" r="1.13" fill="#f9f9f9"/></g><g transform="translate(11.887 12.095)"><circle cx="1.13" cy="1.13" r="1.13" fill="#f9f9f9"/></g><g transform="translate(15.652 12.095)"><circle cx="1.13" cy="1.13" r="1.13" fill="#f9f9f9"/></g><g transform="translate(11.887 15.927)"><circle cx="1.13" cy="1.13" r="1.13" fill="#f9f9f9"/></g></svg>