<svg xmlns="http://www.w3.org/2000/svg" width="94.067" height="75.476" viewBox="0 0 94.067 75.476"><g transform="translate(-141.251 -234.504)"><path d="M29.127,56.775a3.958,3.958,0,0,1-5.492,0L1.707,35.433a5.559,5.559,0,0,1,0-8.016l2.746-2.673a5.938,5.938,0,0,1,8.238,0L26.382,38.067l36.994-36a5.938,5.938,0,0,1,8.238,0L74.36,4.74a5.559,5.559,0,0,1,0,8.016Zm0,0" transform="translate(150.251 243.098)" opacity="0.4"/><path d="M27.974,56.04a3.728,3.728,0,0,1-5.274,0L1.639,34.975a5.592,5.592,0,0,1,0-7.911l2.637-2.638a5.593,5.593,0,0,1,7.912,0L25.337,37.576l35.53-35.53a5.593,5.593,0,0,1,7.912,0l2.637,2.638a5.592,5.592,0,0,1,0,7.911Zm0,0" transform="translate(151.004 242.345)" fill="#f9f9f9"/></g></svg>