<svg xmlns="http://www.w3.org/2000/svg" width="22.319" height="20.459" viewBox="0 0 22.319 20.459"><g transform="translate(0 7.162)"><path d="M16.231,23a1.855,1.855,0,0,1-.474-.061L1.376,19.086A1.877,1.877,0,0,1,.061,16.808l1.814-6.763a.465.465,0,0,1,.9.24L.961,17.046a.944.944,0,0,0,.66,1.143L16,22.038a.926.926,0,0,0,1.132-.655l.726-2.691a.465.465,0,0,1,.9.242l-.725,2.688A1.857,1.857,0,0,1,16.231,23Z" transform="translate(0 -9.701)"/></g><g transform="translate(3.719 0)"><path d="M20.739,16.879H5.86A1.862,1.862,0,0,1,4,15.019V3.86A1.862,1.862,0,0,1,5.86,2H20.739A1.862,1.862,0,0,1,22.6,3.86V15.019A1.862,1.862,0,0,1,20.739,16.879ZM5.86,2.93a.931.931,0,0,0-.93.93V15.019a.931.931,0,0,0,.93.93H20.739a.931.931,0,0,0,.93-.93V3.86a.931.931,0,0,0-.93-.93Z" transform="translate(-4 -2)"/></g><g transform="translate(6.509 2.79)"><path d="M8.86,8.72a1.86,1.86,0,1,1,1.86-1.86A1.862,1.862,0,0,1,8.86,8.72Zm0-2.79a.93.93,0,1,0,.93.93A.931.931,0,0,0,8.86,5.93Z" transform="translate(-7 -5)"/></g><g transform="translate(3.784 5.161)"><path d="M4.535,16.273a.465.465,0,0,1-.329-.793L8.6,11.088a1.429,1.429,0,0,1,1.972,0L11.878,12.4,15.5,8.052a1.4,1.4,0,0,1,1.062-.5h.01a1.394,1.394,0,0,1,1.059.486l4.864,5.675a.465.465,0,1,1-.706.605L16.923,8.642a.46.46,0,0,0-.353-.162.494.494,0,0,0-.357.167l-3.946,4.734a.463.463,0,0,1-.337.166.448.448,0,0,1-.35-.136L9.913,11.745a.478.478,0,0,0-.657,0L4.863,16.137a.463.463,0,0,1-.328.136Z" transform="translate(-4.07 -7.55)"/></g></svg>