<?xml version="1.0" encoding="utf-8"?>
<!-- Generator: Adobe Illustrator 24.1.2, SVG Export Plug-In . SVG Version: 6.00 Build 0)  -->
<svg version="1.1" id="Layer_1" xmlns="http://www.w3.org/2000/svg" xmlns:xlink="http://www.w3.org/1999/xlink" x="0px" y="0px"
	 viewBox="0 0 233.9 81.33" style="enable-background:new 0 0 233.9 81.33;" xml:space="preserve">
<style type="text/css">
	.st0{fill:#F94956;}
	.st1{fill:#333333;}
</style>
<g>
	<g>
		<g>
			<path class="st0" d="M74.95,38.84V17.27h6.8v7.99c0.23,0,0.44-0.14,0.62-0.42c0.19-0.28,0.35-0.63,0.48-1.05
				c0.13-0.42,0.25-0.82,0.34-1.19l1.69-5.33h6.8l-1.7,5.33c-0.68,2.72-1.48,4.17-2.43,4.36c0.96,0.16,1.81,0.58,2.54,1.25
				c0.73,0.67,1.1,1.71,1.1,3.11v7.51h-6.8v-6.79c0-0.48-0.08-0.85-0.25-1.1c-0.17-0.25-0.45-0.43-0.83-0.54
				c-0.38-0.12-0.9-0.22-1.55-0.3v8.73H74.95z"/>
			<path class="st0" d="M100.9,28.41c0,0.87,0.2,1.61,0.59,2.22c0.39,0.61,0.91,1.08,1.55,1.4c0.64,0.32,1.32,0.48,2.05,0.48
				c0.68,0,1.34-0.16,1.97-0.47c0.62-0.31,1.12-0.78,1.5-1.4c0.38-0.63,0.57-1.37,0.57-2.23c0-1.38-0.39-2.44-1.18-3.18
				c-0.79-0.74-1.75-1.11-2.87-1.11c-1.11,0-2.09,0.38-2.92,1.14C101.32,26.03,100.9,27.07,100.9,28.41 M93.86,27.93
				c0-1.24,0.24-2.49,0.73-3.75c0.48-1.26,1.21-2.41,2.17-3.46c0.96-1.05,2.14-1.89,3.54-2.51c1.4-0.63,2.97-0.94,4.72-0.94
				c1.68,0,3.2,0.26,4.55,0.78c1.36,0.52,2.5,1.27,3.45,2.24c0.95,0.97,1.67,2.15,2.17,3.53c0.5,1.39,0.75,2.91,0.75,4.59
				c0,1.58-0.28,3.06-0.86,4.43c-0.57,1.38-1.36,2.56-2.35,3.56c-1,1-2.15,1.77-3.44,2.32c-1.29,0.55-2.63,0.83-4.02,0.83
				c-1.51,0-2.95-0.29-4.33-0.86c-1.38-0.57-2.6-1.38-3.65-2.42c-1.06-1.03-1.89-2.27-2.5-3.71C94.16,31.13,93.86,29.58,93.86,27.93
				z"/>
			<path class="st0" d="M118.85,38.84V17.27h6.8v7.99c0.23,0,0.44-0.14,0.62-0.42c0.19-0.28,0.35-0.63,0.48-1.05
				c0.13-0.42,0.25-0.82,0.34-1.19l1.69-5.33h6.8l-1.7,5.33c-0.68,2.72-1.48,4.17-2.43,4.36c0.96,0.16,1.81,0.58,2.54,1.25
				c0.73,0.67,1.1,1.71,1.1,3.11v7.51h-6.8v-6.79c0-0.48-0.08-0.85-0.25-1.1c-0.17-0.25-0.45-0.43-0.83-0.54
				c-0.38-0.12-0.9-0.22-1.55-0.3v8.73H118.85z"/>
			<rect x="138" y="17.27" class="st0" width="6.8" height="21.57"/>
			<path class="st0" d="M160.33,38.84h-6.31c-1.2,0-2.25-0.29-3.16-0.86c-0.92-0.57-1.63-1.37-2.14-2.38
				c-0.51-1.01-0.77-2.11-0.77-3.3V17.27h6.55v12.37c0,0.77,0.05,1.36,0.13,1.76c0.09,0.41,0.27,0.7,0.54,0.88
				c0.26,0.18,0.69,0.26,1.27,0.26h3.89V38.84z"/>
			<path class="st0" d="M161.28,38.84V25.02c0-1.05,0.18-2.07,0.54-3.05c0.36-0.98,0.89-1.87,1.61-2.66
				c0.71-0.8,1.59-1.42,2.61-1.87c1.02-0.45,2.18-0.67,3.48-0.67c1.44,0,2.79,0.3,4.05,0.9c1.25,0.59,2.27,1.53,3.04,2.81
				c0.77,1.28,1.16,2.88,1.16,4.79v13.58h-6.8v-6.3h-1.92v-5.8h1.92v-2.2c0-0.46-0.14-0.82-0.43-1.08
				c-0.28-0.26-0.62-0.39-1.01-0.39c-0.39,0-0.73,0.13-1.01,0.39c-0.28,0.26-0.43,0.61-0.43,1.07v14.32H161.28z"/>
		</g>
	</g>
	<g>
		<g>
			<path class="st1" d="M89.17,68.93h-3.89c-2.18,0-4.06-0.49-5.63-1.48c-1.57-0.98-2.74-2.28-3.52-3.89
				c-0.78-1.61-1.17-3.33-1.17-5.14c0-1.9,0.41-3.69,1.25-5.38c0.83-1.69,2.06-3.05,3.7-4.1c1.64-1.05,3.6-1.58,5.86-1.58h3.4v5.59
				h-2.19c-0.68,0-1.36,0.11-2.03,0.32c-0.68,0.22-1.26,0.53-1.75,0.93c-0.49,0.4-0.77,0.87-0.83,1.39h6.8v5.09h-6.8
				c0.14,0.58,0.52,1.14,1.14,1.66c0.62,0.53,1.37,0.79,2.26,0.79h3.4V68.93z"/>
			<path class="st1" d="M92.07,68.93V47.36h7.76c1.48,0,2.86,0.26,4.12,0.77c1.26,0.52,2.35,1.25,3.27,2.2
				c0.92,0.95,1.64,2.08,2.16,3.39c0.52,1.31,0.81,2.75,0.87,4.3c0,0.08,0.01,0.16,0.01,0.22c0.01,0.07,0.01,0.16,0.01,0.26
				c0,2.03-0.46,3.84-1.37,5.44c-0.91,1.59-2.16,2.82-3.74,3.69c-1.58,0.86-3.35,1.29-5.31,1.29v-6.3c0.57,0,1.12-0.17,1.64-0.5
				c0.52-0.33,0.94-0.83,1.26-1.48c0.32-0.66,0.48-1.45,0.48-2.38c0-1.59-0.4-2.76-1.19-3.5c-0.8-0.74-1.85-1.11-3.16-1.11v15.27
				H92.07z"/>
			<path class="st1" d="M111.7,47.36h6.8v14.32c0,0.46,0.14,0.81,0.43,1.07c0.29,0.26,0.63,0.39,1.02,0.39
				c0.39,0,0.73-0.13,1.02-0.39c0.29-0.26,0.43-0.61,0.43-1.07V47.36h6.8v14.31c0,1.16-0.17,2.22-0.51,3.17
				c-0.34,0.95-0.85,1.77-1.54,2.45c-0.68,0.68-1.55,1.21-2.59,1.59c-1.05,0.37-2.26,0.56-3.62,0.56c-1.29,0-2.46-0.22-3.49-0.65
				c-1.03-0.43-1.9-1.01-2.62-1.75c-0.71-0.75-1.25-1.58-1.61-2.49c-0.36-0.92-0.54-1.88-0.54-2.87V47.36z"/>
			<path class="st1" d="M145.42,68.93h-3.64c-2.19,0-4.09-0.5-5.7-1.51c-1.6-1.01-2.8-2.32-3.6-3.96c-0.8-1.63-1.2-3.36-1.2-5.19
				c0-1.9,0.42-3.68,1.25-5.34c0.83-1.66,2.08-3.01,3.75-4.04c1.67-1.03,3.66-1.55,5.99-1.55h3.15v6.3h-2.66
				c-0.95,0-1.76,0.21-2.43,0.62c-0.66,0.41-1.16,0.97-1.5,1.66c-0.34,0.69-0.5,1.42-0.5,2.19c0,1.27,0.41,2.38,1.24,3.33
				c0.83,0.95,1.97,1.42,3.43,1.42h2.42V68.93z"/>
			<path class="st1" d="M147.11,68.93V55.11c0-1.05,0.18-2.07,0.54-3.05c0.36-0.98,0.89-1.87,1.61-2.66
				c0.71-0.8,1.59-1.42,2.61-1.87c1.02-0.45,2.18-0.67,3.48-0.67c1.44,0,2.79,0.3,4.05,0.9c1.25,0.59,2.27,1.53,3.04,2.81
				c0.77,1.28,1.16,2.88,1.16,4.79v13.58h-6.8v-6.3h-1.92v-5.8h1.92v-2.2c0-0.46-0.14-0.82-0.43-1.08
				c-0.28-0.26-0.62-0.39-1.01-0.39c-0.39,0-0.73,0.13-1.01,0.39c-0.28,0.26-0.43,0.61-0.43,1.07v14.32H147.11z"/>
			<polygon class="st1" points="167.95,68.93 167.95,53.41 164.33,53.41 164.33,47.36 178.41,47.36 178.41,53.41 174.75,53.41 
				174.75,68.93 			"/>
			<rect x="179.61" y="47.36" class="st1" width="6.8" height="21.57"/>
			<path class="st1" d="M196.11,58.5c0,0.87,0.2,1.61,0.59,2.22c0.39,0.61,0.91,1.08,1.55,1.4c0.64,0.32,1.32,0.48,2.05,0.48
				c0.68,0,1.34-0.16,1.97-0.47c0.62-0.31,1.12-0.78,1.5-1.4c0.38-0.63,0.57-1.37,0.57-2.23c0-1.38-0.39-2.44-1.18-3.18
				c-0.79-0.74-1.75-1.11-2.87-1.11c-1.11,0-2.09,0.38-2.92,1.14C196.53,56.12,196.11,57.16,196.11,58.5 M189.06,58.01
				c0-1.24,0.24-2.49,0.73-3.75c0.48-1.26,1.21-2.41,2.17-3.46c0.96-1.05,2.14-1.89,3.54-2.51c1.4-0.63,2.97-0.94,4.72-0.94
				c1.68,0,3.2,0.26,4.55,0.78c1.36,0.52,2.5,1.27,3.45,2.24c0.95,0.97,1.67,2.15,2.17,3.53c0.5,1.39,0.75,2.91,0.75,4.59
				c0,1.58-0.28,3.06-0.86,4.43c-0.57,1.38-1.36,2.56-2.35,3.56c-1,1-2.15,1.77-3.44,2.32c-1.29,0.55-2.63,0.83-4.02,0.83
				c-1.51,0-2.95-0.29-4.33-0.86c-1.38-0.57-2.6-1.38-3.65-2.42c-1.06-1.03-1.89-2.27-2.5-3.71
				C189.37,61.22,189.06,59.67,189.06,58.01z"/>
			<path class="st1" d="M214.05,68.93v-18.2c0-1.11,0.37-2,1.11-2.65c0.75-0.65,1.62-0.98,2.64-0.98c0.81,0,1.57,0.22,2.29,0.67
				c0.72,0.44,1.29,1.11,1.7,1.99l3.39,7.04v-9.45h6.8v18.19c0,0.86-0.16,1.58-0.48,2.17c-0.32,0.58-0.75,1.03-1.28,1.33
				c-0.53,0.29-1.12,0.44-1.77,0.44c-0.79,0-1.54-0.22-2.26-0.65c-0.72-0.43-1.3-1.05-1.72-1.84l-3.63-6.8v8.73H214.05z"/>
		</g>
	</g>
	<polyline class="st1" points="6.28,28.84 8.75,21.75 21.75,14.39 28.9,16.54 23.47,23.04 14.1,27.53 6.55,28.84 	"/>
	<circle class="st1" cx="20.77" cy="28.5" r="7.16"/>
	<polygon class="st1" points="8.43,28.14 8.92,37.16 6.77,37.16 7.25,28.14 	"/>
	<path class="st1" d="M1.91,59.9c0,0-0.72-15.25,22.92-23.42c0,0,4.08,4.58,2.58,19.91c0,0,5.73-7.38,1-22.2c0,0,7.09-4.51,3.8-19.8
		c0,0,21.81,36.7-23.29,65.78c0,0,17.06-21.56,6.68-28.5C10.51,48.52,2.13,58.4,1.91,59.9z"/>
	<path class="st0" d="M35.51,13.33l-4.12-2.6l-4.12,2.6l1.2-4.72L24.81,5.5l4.78-0.31l1.8-4.52l1.8,4.52l4.78,0.31l-3.67,3.11
		L35.51,13.33z"/>
	<path class="st0" d="M69.17,39.4l-25.2-1.66l-3.67-9.21c0.36,2.43,0.58,5.08,0.54,7.89c-0.15,10.66-4.08,25.47-20.41,39.41
		l14.05-8.88l21.69,13.71l-6.34-24.87L69.17,39.4z"/>
</g>
</svg>
