<svg xmlns="http://www.w3.org/2000/svg" width="18" height="21.515" viewBox="0 0 18 21.515"><g transform="translate(-1774 -171.485)"><g transform="translate(1774 189)" fill="none" stroke="#222" stroke-width="1"><ellipse cx="9" cy="2" rx="9" ry="2" stroke="none"/><ellipse cx="9" cy="2" rx="8.5" ry="1.5" fill="none"/></g><path d="M7,19.515H7c-.018-.021-1.777-2.126-3.5-4.67A34.338,34.338,0,0,1,1.094,10.8,8.861,8.861,0,0,1,0,7.194a7.321,7.321,0,0,1,.55-2.8,7.184,7.184,0,0,1,1.5-2.287A6.969,6.969,0,0,1,4.275.565a6.848,6.848,0,0,1,5.449,0A6.969,6.969,0,0,1,11.95,2.107a7.185,7.185,0,0,1,1.5,2.287,7.321,7.321,0,0,1,.55,2.8,8.861,8.861,0,0,1-1.094,3.6A34.339,34.339,0,0,1,10.5,14.845c-1.723,2.543-3.482,4.649-3.5,4.67ZM7,5.886a2.4,2.4,0,0,0,0,4.8,2.4,2.4,0,0,0,0-4.8Z" transform="translate(1776 171.485)" fill="#222"/></g></svg>