<svg xmlns="http://www.w3.org/2000/svg" width="10.124" height="11.519" viewBox="0 0 10.124 11.519"><g transform="translate(1.35)"><path d="M94.712,0a3.711,3.711,0,0,0-3.018,5.872l2.733,4.265a.337.337,0,0,0,.568,0l2.745-4.28A3.712,3.712,0,0,0,94.712,0Zm0,5.4A1.687,1.687,0,1,1,96.4,3.712,1.689,1.689,0,0,1,94.712,5.4Z" transform="translate(-91)" fill="#fff"/></g><g transform="translate(0 7.755)"><path d="M38.7,344.7,37,347.352a1.116,1.116,0,0,1-1.878,0l-1.7-2.657c-1.5.346-2.421.981-2.421,1.739,0,1.315,2.608,2.025,5.062,2.025s5.062-.71,5.062-2.025C41.124,345.676,40.2,345.041,38.7,344.7Z" transform="translate(-31 -344.695)" fill="#fff"/></g></svg>