<svg xmlns="http://www.w3.org/2000/svg" width="25.388" height="24" viewBox="0 0 25.388 24"><path d="M1.347,21.139H5.653A1.349,1.349,0,0,1,7,22.487v4.955H8.61a3.7,3.7,0,0,1-.1-1.156h0A10.809,10.809,0,0,1,9.528,21.56a5.073,5.073,0,0,1,1.576-1.9,3.449,3.449,0,0,1-.923-2.442,3.156,3.156,0,1,1,6.31,0,.372.372,0,0,1-.372.372h-.253a2.619,2.619,0,0,1,.036.429,2.582,2.582,0,0,1-2.075,2.53,6.268,6.268,0,0,1,.185,1.618l.928.8,2.257.183,2.6-.861a.788.788,0,0,1,.744,0,.661.661,0,0,1,.231.555v1.936a.372.372,0,0,1-.372.372h-.443l.679,2.347a.372.372,0,0,1-.715.207l-.739-2.553H18.129a12,12,0,0,1-.589,9.4h.669l2.784-3.113L20.4,29.4a.372.372,0,0,1,.715-.207l.563,1.946a3.741,3.741,0,0,1,3.7,2.9.372.372,0,0,1-.279.446l-.528.121a2.845,2.845,0,0,1-5.5,1.265l-.417.1a.486.486,0,0,1-.359-.02.427.427,0,0,1-.209-.285,3.7,3.7,0,0,1-.06-.37H10.249a3.169,3.169,0,0,1-6.272,0H3.624a.509.509,0,0,1-.386-.14.477.477,0,0,1-.132-.362,4.216,4.216,0,0,1,.152-1.007,5.8,5.8,0,0,1,.411-3.751.979.979,0,0,1-.444-.82V28.187H1.347A1.349,1.349,0,0,1,0,26.838V22.487a1.349,1.349,0,0,1,1.347-1.348ZM20.624,36.657a2.086,2.086,0,0,0,1.586.267h0a2.107,2.107,0,0,0,1.629-2.153l-4.034.928a2.091,2.091,0,0,0,.819.957Zm-1.861-1.481,5.785-1.331a3,3,0,0,0-2.961-1.962l-2.834,3.169Q18.757,35.114,18.763,35.176Zm-5.617-6.481a3.311,3.311,0,0,1,.108,1.122v1.4h1.362V29.295c0-2.177-1.188-2.565-1.721-2.629H9.248a1.577,1.577,0,0,0,.338,1.068,1.727,1.727,0,0,0,1.29.387h1.335a.9.9,0,0,1,.934.573Zm.108,3.269v.888h2.652a1.06,1.06,0,0,0-.256-.636.918.918,0,0,0-.662-.252ZM9.265,25.922h3.382A13.887,13.887,0,0,0,13,24.546l-1.028-.667a1.535,1.535,0,0,1-.8-1.413,1.315,1.315,0,0,1,.819-1.076,1.342,1.342,0,0,1,1.248.138,4.391,4.391,0,0,0-.18-.943,2.621,2.621,0,0,1-.471-.093,3.081,3.081,0,0,1-.868-.344C11.007,20.574,9.431,21.963,9.265,25.922Zm6.455-9.076a2.408,2.408,0,0,0-4.8.372,2.526,2.526,0,0,0,1.39,2.4V17.658a.74.74,0,0,1,.747-.811l.034,0Zm-.562,1.172a1.852,1.852,0,0,0-.05-.429H13.114l-.052.008a.442.442,0,0,0,0,.061v2.176a1.84,1.84,0,0,0,.267.02h0a1.836,1.836,0,0,0,1.83-1.835Zm.482,5.748-.881-.071a.372.372,0,0,1-.213-.089l-1.59-1.367h0a.739.739,0,0,0-.478-.2.572.572,0,0,0-.565.5.82.82,0,0,0,.466.717l1.771,1.15H15.64v-.638Zm1.572.127-.828-.067V24.4h.962c.125,0,.155-.1.159-.191A.3.3,0,0,0,17.212,23.894Zm.88-.257a1.074,1.074,0,0,1,.137.764s0,0,0,0h1.8V22.992l-1.941.642Zm-.748,1.511h-3.3a.372.372,0,0,1-.2-.06l-.168-.109c-.081.358-.173.706-.274,1.035.758.224,1.962.947,1.962,3.281v1.963a1.552,1.552,0,0,1,.828.445,1.814,1.814,0,0,1,.465,1.15h.75a10.937,10.937,0,0,0-.058-7.7Zm-.613,9.395c.137-.316.27-.631.395-.947H13.264c-.5,0-.754-.228-.754-.677v-2.73H9.574a.372.372,0,1,1,0-.744h2.933a1.683,1.683,0,0,0-.057-.486c-.019-.05-.035-.092-.239-.092H10.876a2.4,2.4,0,0,1-1.829-.619c-.018-.019-.036-.039-.053-.06H3.97v1.022a.239.239,0,0,0,.235.236h3.7a.372.372,0,1,1,0,.744H4.423a4.391,4.391,0,0,0-.543,2.3,4.036,4.036,0,0,1,6.147-.48A4.1,4.1,0,0,1,11.2,34.544ZM7.113,37.256a2.451,2.451,0,0,0,2.38-1.968H4.733A2.451,2.451,0,0,0,7.113,37.256Zm-2.8-2.712h6.14A3.336,3.336,0,0,0,7.159,31.55a3.3,3.3,0,0,0-3.165,2.365l0,.013a3.433,3.433,0,0,0-.123.616ZM.744,26.838a.6.6,0,0,0,.6.6H6.256V25.522H.744Zm0-2.06H6.256v-.791H.744Zm0-1.535H6.256v-.756a.6.6,0,0,0-.6-.6H1.347a.6.6,0,0,0-.6.6Z" transform="translate(0 -14)" fill="#ce6e2e"/></svg>