<svg xmlns="http://www.w3.org/2000/svg" width="14.335" height="17.643" viewBox="0 0 14.335 17.643"><g transform="translate(-48)"><path d="M60.956,2.205H57.924V1.654A1.656,1.656,0,0,0,56.27,0H54.065a1.656,1.656,0,0,0-1.654,1.654v.551H49.378A1.38,1.38,0,0,0,48,3.584v1.93a.551.551,0,0,0,.551.551h.3l.476,10a1.652,1.652,0,0,0,1.652,1.575h8.373a1.652,1.652,0,0,0,1.652-1.575l.476-10h.3a.551.551,0,0,0,.551-.551V3.584A1.38,1.38,0,0,0,60.956,2.205Zm-7.443-.551a.552.552,0,0,1,.551-.551H56.27a.552.552,0,0,1,.551.551v.551H53.513ZM49.1,3.584a.276.276,0,0,1,.276-.276H60.956a.276.276,0,0,1,.276.276V4.962H49.1ZM59.9,16.015a.551.551,0,0,1-.551.525H50.981a.551.551,0,0,1-.551-.525l-.474-9.95H60.378Z" fill="#648295"/><path d="M240.551,216.27a.551.551,0,0,0,.551-.551v-7.167a.551.551,0,0,0-1.1,0v7.167A.551.551,0,0,0,240.551,216.27Z" transform="translate(-185.384 -200.833)" fill="#648295"/><path d="M320.551,216.27a.551.551,0,0,0,.551-.551v-7.167a.551.551,0,1,0-1.1,0v7.167A.551.551,0,0,0,320.551,216.27Z" transform="translate(-262.627 -200.833)" fill="#648295"/><path d="M160.551,216.27a.551.551,0,0,0,.551-.551v-7.167a.551.551,0,1,0-1.1,0v7.167A.551.551,0,0,0,160.551,216.27Z" transform="translate(-108.141 -200.833)" fill="#648295"/></g></svg>