<svg xmlns="http://www.w3.org/2000/svg" width="28" height="28" viewBox="0 0 28 28">
  <path id="Subtraction_11" data-name="Subtraction 11" d="M14,28a14.01,14.01,0,0,1-9.022-3.293A10.515,10.515,0,0,1,8.725,20.94a10.412,10.412,0,0,1,10.551,0,10.514,10.514,0,0,1,3.746,3.766A14.009,14.009,0,0,1,14,28Zm10.446-4.679h0a12.415,12.415,0,0,0-1.705-2.127,12.245,12.245,0,0,0-4.7-2.946,7.145,7.145,0,1,0-8.086,0,12.244,12.244,0,0,0-4.7,2.946,12.49,12.49,0,0,0-1.707,2.126,14,14,0,1,1,20.893,0ZM14,17.573a5.214,5.214,0,1,1,5.215-5.214A5.22,5.22,0,0,1,14,17.573Z"/>
</svg>
