<svg xmlns="http://www.w3.org/2000/svg" width="22.427" height="12.884" viewBox="0 0 22.427 12.884"><g transform="translate(0 0)"><g transform="translate(0 0)"><path d="M22.285,98.884c-.2-.247-4.974-6.049-11.071-6.049S.342,98.637.142,98.884a.615.615,0,0,0,0,.787c.2.247,4.974,6.049,11.071,6.049s10.871-5.8,11.071-6.049A.614.614,0,0,0,22.285,98.884Zm-11.071,5.5c-4.491,0-8.381-3.851-9.532-5.11,1.15-1.26,5.032-5.109,9.532-5.109s8.38,3.85,9.532,5.11C19.6,100.537,15.714,104.386,11.213,104.386Z" transform="translate(0 -92.835)" fill="#033554"/></g></g><g transform="translate(6.777 2.444)"><g transform="translate(0 0)"><path d="M159.158,154.725a4.02,4.02,0,1,0,4.436,4A4.239,4.239,0,0,0,159.158,154.725Zm0,6.664a2.68,2.68,0,1,1,2.957-2.666A2.826,2.826,0,0,1,159.158,161.389Z" transform="translate(-154.722 -154.725)" fill="#033554"/></g></g></svg>