<svg xmlns="http://www.w3.org/2000/svg" width="18.369" height="22.595" viewBox="0 0 18.369 22.595"><path d="M65.8,13.629h-.5V10.946a1.819,1.819,0,0,0-1.817-1.817h-.609l1.776-3.364a1.482,1.482,0,0,0-.622-2L57.2.171a1.489,1.489,0,0,0-2.006.621l-4.4,8.337h-1.1a1.819,1.819,0,0,0-1.817,1.817v9.832a1.819,1.819,0,0,0,1.817,1.817H63.484A1.819,1.819,0,0,0,65.3,20.778V18.095h.5a.441.441,0,0,0,.441-.441V14.07A.441.441,0,0,0,65.8,13.629ZM55.973,1.2a.6.6,0,0,1,.815-.252l6.83,3.59a.6.6,0,0,1,.252.811L61.876,9.129H60.692L61.818,7a.441.441,0,0,0-.185-.6,1.217,1.217,0,0,1-.512-1.646.441.441,0,0,0-.185-.6L58.62,2.939a.441.441,0,0,0-.6.185,1.226,1.226,0,0,1-1.652.511.441.441,0,0,0-.6.185l-2.8,5.31H51.789Zm4.219,4.739a2.087,2.087,0,0,0,.661.992L59.694,9.129H53.971l2.4-4.549A2.115,2.115,0,0,0,58.558,3.9l1.617.85A2.083,2.083,0,0,0,60.192,5.942Zm4.226,14.836a.935.935,0,0,1-.934.934H49.694a.935.935,0,0,1-.934-.934V10.946a.935.935,0,0,1,.934-.934H63.484a.935.935,0,0,1,.934.934v2.683H62.695a2.233,2.233,0,0,0,0,4.466h1.723Zm.945-3.566H62.695a1.35,1.35,0,1,1,0-2.7h2.669Z" transform="translate(-47.877 0)" fill="#fff"/></svg>